<?xml version="1.0" encoding="utf-8"?>
<!-- Generator: Adobe Illustrator 24.3.0, SVG Export Plug-In . SVG Version: 6.00 Build 0)  -->
<svg version="1.0" id="katman_1" xmlns="http://www.w3.org/2000/svg" xmlns:xlink="http://www.w3.org/1999/xlink" x="0px" y="0px"
	 viewBox="0 0 841.89 595.28" style="enable-background:new 0 0 841.89 595.28;" xml:space="preserve">
<style type="text/css">
	.st0{fill:#163B36;}
	.st1{fill:#474E9C;}
	.st2{fill:#FFFFFF;}
	.st3{fill:#353089;}
</style>
<path class="st0" d="M327,225.12h13.14v117.57H327v-10.37h-0.33c-4.93,6.41-12.82,12.66-26.31,12.66
	c-21.05,0-37.82-16.61-37.82-44.23c0-27.62,16.77-44.23,37.82-44.23c13.49,0,21.37,5.92,26.31,13.16H327V225.12z M327,300.75
	c0-19.73-9.7-32.72-25.32-32.72c-17.27,0-25.98,16.28-25.98,32.72c0,16.44,8.72,32.72,25.98,32.72
	C317.3,333.47,327,320.48,327,300.75z"/>
<path class="st0" d="M389.24,268.03c-15.95,0-21.22,4.6-22.03,16.77h-13.16c0.82-16.11,10.85-28.28,35.19-28.28
	c15.95,0,30.25,6.25,30.25,26.45v40.78c0,6.58,1.18,10.19,9.54,9.21v9.21c-2.47,0.91-5.09,1.36-7.72,1.31
	c-7.9,0-12.66-2.13-14.96-11.35h-0.35c-5.26,7.89-14.63,12.83-28.44,12.83c-16.94,0-27.63-9.7-27.63-23.84
	c0-19.07,14.14-24,35.86-28.11c14.14-2.63,20.58-4.44,20.58-12.83C406.34,273.62,402.72,268.03,389.24,268.03z M406.34,310.29
	v-13.97c-2.47,2.46-10.53,4.77-19.4,6.58c-16.28,3.45-23.87,7.56-23.87,17.59c0,8.23,4.93,12.99,15.79,12.99
	C394.5,333.47,406.34,326.4,406.34,310.29z"/>
<path class="st0" d="M495.34,258.82h13.15v79.25c0,22.34-14.14,33.71-37.16,33.71c-23.02,0-36.67-12.17-37.98-26.45h13.19
	c1.65,8.55,8.55,14.96,24.17,14.96c15.62,0,24.66-6.74,24.66-22.34v-12.7h-0.33c-4.93,7.23-12.82,13.15-26.64,13.15
	c-20.72,0-37.49-13.32-37.49-40.94c0-27.62,16.77-40.95,37.49-40.95c13.81,0,21.7,6.25,26.64,12.66h0.33L495.34,258.82z
	 M495.34,297.47c0-19.73-9.7-29.43-25.32-29.43c-17.27,0-25.98,12.99-25.98,29.43c0,16.44,8.71,29.43,25.98,29.43
	C485.66,326.89,495.34,317.19,495.34,297.47z"/>
<path class="st0" d="M589.33,319.66c0,15.28-13.97,25.32-33.05,25.32c-25.65,0-37.49-12.17-38.31-30.25h13.15
	c0.82,9.37,4.12,18.74,25.15,18.74c14.3,0,19.9-7.4,19.9-12.99c0-12.16-11.02-12.82-23.02-15.78c-12.83-3.12-31.9-4.6-31.9-24.33
	c0-13.16,11.67-23.84,31.41-23.84c20.88,0,32.07,11.84,33.38,26.31h-13.15c-1.32-6.41-4.44-14.8-20.23-14.8
	c-11.84,0-18.22,4.77-18.22,11.35c0,9.86,11.35,10.69,23.02,13.49C572.4,296.48,589.33,298.94,589.33,319.66z"/>
<path class="st0" d="M633.8,270.34h-16.46v50.47c0,9.54,5.29,11.17,16.46,10.36v11.52c-3.24,0.68-6.55,1.01-9.86,0.99
	c-11.17,0-19.74-4.44-19.74-21.54v-51.79h-12.34v-11.52h12.34v-27.95h13.16v27.95h16.46L633.8,270.34z"/>
<path class="st0" d="M703.71,316.86h13.15c-4.28,15.62-16.28,28.12-37.16,28.12c-25.49,0-40.95-17.92-40.95-44.23
	c0-27.95,15.79-44.23,40.29-44.23c26.31,0,39.13,17.92,39.13,47.68h-66.27c0,15.13,9.04,29.27,27.3,29.27
	C695.98,333.47,702.23,322.62,703.71,316.86z M651.91,292.72h53.11c0-13.49-10.2-24.69-25.98-24.69
	C663.26,268.03,651.91,279.2,651.91,292.72z"/>
<path class="st0" d="M772.44,257.01v13.16h-0.33c-18.22-2.94-30.91,9.86-30.91,27.79v44.73h-13.15v-83.87h13.15v16.61h0.33
	c4.44-11.02,11.17-18.91,23.18-18.91C767.29,256.49,769.87,256.66,772.44,257.01z"/>
<path class="st1" d="M121.04,365.75c0,0.83,0.18,1.66,0.51,2.42c0.33,0.76,0.82,1.45,1.43,2.01c0.61,0.56,1.33,1,2.12,1.27
	c0.79,0.27,1.62,0.38,2.45,0.32c31.53-2.26,61.31-24.57,70.82-59.43c0.5-2,2-3.01,4.01-3.01c1.03,0.04,2,0.49,2.7,1.24
	c0.7,0.75,1.08,1.75,1.05,2.78c0,7.77-9.99,28.08-24.28,39.87c-0.73,0.61-1.31,1.38-1.7,2.25c-0.39,0.87-0.58,1.81-0.55,2.76
	c0.01,0.77,0.18,1.54,0.49,2.25c0.31,0.71,0.76,1.35,1.31,1.89c0.56,0.54,1.22,0.96,1.94,1.24c0.72,0.28,1.49,0.42,2.26,0.4
	c1.25,0,3.26-0.75,5.76-3.01c9.99-9.03,29.03-34.35,29.03-62.19c0-40.81-31.55-75.98-75.58-75.98c-39.29,0-73.33,32.1-73.33,69.21
	c0,24.57,19.52,43.13,45.3,43.13c19.77,0,38.04-14.04,43.05-33.35c0.5-2,2-3.01,4-3.01c1.03,0.04,2,0.49,2.7,1.24
	c0.7,0.75,1.08,1.75,1.05,2.78c0,8.78-16.52,39.39-50.06,39.39c-8.01,0-18.02-2.26-25.03-6.27c-0.94-0.46-1.96-0.71-3-0.75
	c-0.8-0.03-1.59,0.1-2.34,0.4s-1.42,0.73-1.98,1.3c-0.56,0.57-1.01,1.24-1.3,1.99c-0.29,0.74-0.42,1.54-0.39,2.34
	c0.03,1.02,0.33,2.02,0.85,2.9c0.53,0.88,1.27,1.61,2.15,2.12c9.26,5.29,20.27,8.02,31.53,8.02c28.03,0,53.56-19.06,61.07-47.14
	c0.5-2,2-3.01,4-3.01c1.03,0.04,2,0.49,2.7,1.24c0.7,0.75,1.08,1.75,1.05,2.78c0,11.53-20.52,48.65-60.06,51.66
	c-1.53,0.11-2.96,0.79-4.03,1.9C121.71,362.75,121.09,364.21,121.04,365.75z"/>
<path class="st2" d="M160.22,269.71c5.4-0.04,10.69,1.45,15.28,4.3c0.46-2.54,0.72-5.11,0.76-7.68c0-11.9-9.07-22.57-20.12-22.57
	c-8.59,0-13.96,7.12-13.96,15.91c-0.04,4.75,1.63,9.36,4.7,12.98C151.05,270.67,155.61,269.66,160.22,269.71z"/>
<path class="st3" d="M186.11,312.84c1.53-5.24,2.21-8.88,2.21-11.25c-0.05-1.02-0.48-1.98-1.22-2.69c-0.74-0.71-1.72-1.1-2.74-1.11
	c-0.95,0.02-1.87,0.35-2.61,0.95c-0.74,0.6-1.26,1.43-1.47,2.36c-0.42,1.72-1.31,6.39-2.19,9.35c0.36-1.11,0.7-2.24,1-3.38
	c0.5-2.01,2-3.01,4-3.01c1.03,0.04,2,0.48,2.7,1.23c0.7,0.75,1.08,1.75,1.05,2.78c-0.05,1.62-0.31,3.22-0.77,4.77L186.11,312.84z"/>
<path class="st3" d="M207.38,307.36c-0.05-1.02-0.48-1.98-1.22-2.69c-0.74-0.71-1.71-1.1-2.73-1.11c-0.95,0.02-1.87,0.35-2.6,0.95
	c-0.74,0.6-1.25,1.43-1.47,2.36c-0.42,1.76-1.33,6.5-2.23,9.46h0.04c0.43-1.32,0.84-2.65,1.18-4.01c0.5-2.01,2-3.01,4.01-3.01
	c1.03,0.04,2,0.48,2.7,1.23c0.7,0.75,1.08,1.75,1.05,2.78c-0.03,1.25-0.2,2.49-0.51,3.7C206.83,312.64,207.38,309.48,207.38,307.36z
	"/>
<path class="st0" d="M160.22,269.71c2.68-0.01,5.35,0.35,7.94,1.06c1.36-1.85,2.04-4.12,1.92-6.41c-0.11-2.29-1.02-4.48-2.55-6.19
	s-3.61-2.83-5.88-3.19c-2.27-0.35-4.59,0.08-6.57,1.24l4.11,6.77l-7.7-3.33c-1.04,1.68-1.57,3.64-1.5,5.62
	c0.06,1.98,0.71,3.9,1.86,5.51C154.57,270.07,157.39,269.7,160.22,269.71z"/>
<path class="st3" d="M100.87,313.3c3.25,0,5.88-2.63,5.88-5.88c0-3.25-2.63-5.88-5.88-5.88c-3.25,0-5.88,2.63-5.88,5.88
	C94.99,310.66,97.62,313.3,100.87,313.3z"/>
<path class="st3" d="M100.87,289.78c3.25,0,5.88-2.63,5.88-5.88c0-3.25-2.63-5.88-5.88-5.88c-3.25,0-5.88,2.63-5.88,5.88
	C94.99,287.15,97.62,289.78,100.87,289.78z"/>
<path class="st3" d="M89.12,301.54c3.25,0,5.88-2.63,5.88-5.88c0-3.25-2.63-5.88-5.88-5.88s-5.88,2.63-5.88,5.88
	C83.24,298.91,85.87,301.54,89.12,301.54z"/>
<path class="st3" d="M115.56,335.14h1.18c19.77,0,38.04-14.04,43.05-33.35c0.5-2,2-3.01,4-3.01c1.03,0.04,2,0.49,2.7,1.24
	c0.7,0.75,1.08,1.75,1.05,2.78c-0.09,2.05-0.55,4.07-1.37,5.95c0.14-0.22,0.27-0.45,0.37-0.69c1.49-3.4,2.26-7.07,2.26-10.78
	c0-5.77-4.01-9.53-9.76-9.53c-10.03,0-12.04,8.76-16.27,18.12c-4.39,9.72-12.45,20.24-32.78,20.24c-21.13,0-42.83-14.8-37.54-44.88
	c0.06-0.38,0.12-0.71,0.16-1.02c-0.78,3.89-1.17,7.84-1.18,11.8C71.49,316.24,90.4,334.58,115.56,335.14z"/>
</svg>
